<?xml version="1.0" encoding="utf-8"?>
<!-- Generator: Adobe Illustrator 23.0.5, SVG Export Plug-In . SVG Version: 6.00 Build 0)  -->
<svg version="1.1" id="Layer_1" xmlns="http://www.w3.org/2000/svg" xmlns:xlink="http://www.w3.org/1999/xlink" x="0px" y="0px"
	 viewBox="0 0 1080 1080" style="enable-background:new 0 0 1080 1080;" xml:space="preserve">
<style type="text/css">
	.st0{clip-path:url(#SVGID_2_);}
	.st1{fill:url(#SVGID_3_);}
	.st2{fill:url(#SVGID_4_);}
	.st3{fill:#36BFED;}
	.st4{fill:#2C3E50;}
	.st5{fill:#4BA7D2;}
</style>
<g id="Background">
</g>
<g transform="matrix(2.453,0,0,2.453,70,138)">
</g>
<g>
	<g>
		<g>
			<defs>
				<rect id="SVGID_1_" x="238.6" y="376.6" width="74.5" height="150"/>
			</defs>
			<clipPath id="SVGID_2_">
				<use xlink:href="#SVGID_1_"  style="overflow:visible;"/>
			</clipPath>
			<g class="st0">
				
					<image style="overflow:visible;enable-background:new    ;" width="221" height="438" xlink:href="25C6A398.png"  transform="matrix(0.3414 0 0 0.3414 238.1743 376.8801)">
				</image>
			</g>
		</g>
	</g>
	<g>
		
			<linearGradient id="SVGID_3_" gradientUnits="userSpaceOnUse" x1="667.1401" y1="522.3937" x2="993.5598" y2="522.3937" gradientTransform="matrix(1 0 0 -1 0 1080.3937)">
			<stop  offset="0" style="stop-color:#24264E"/>
			<stop  offset="1" style="stop-color:#377FBA"/>
		</linearGradient>
		<path class="st1" d="M667.1,679c3-14.9,7.1-29.6,14.9-43.1c14.8-25.8,39.2-33.9,66.8-34.3c20.9-0.3,41.9,2.7,62.7,1.7
			c30.9-1.5,61.6-5.3,87.7-24.8c21.8-16.4,38-36.9,48.9-62.1c10.5-24.4,10.7-49.6,8.2-75.2c-0.1-1.4,0-2.9,1.8-5.6
			c2,2.2,4.4,4.1,5.9,6.6c14.6,23.5,25,48.2,28.5,76.3c3.9,31.2-3.4,58.9-21.7,82.8c-36.7,47.7-83.9,72.3-145.7,58.5
			c-24.9-5.6-49.4-12.8-74.3-18.3c-19.5-4.3-39.1-3.9-55.5,9.3c-7.8,6.3-13.5,15.3-20.1,23.1c-1.8,2.1-3.5,4.3-5.3,6.5
			C669,680,668.1,679.5,667.1,679z"/>
		
			<linearGradient id="SVGID_4_" gradientUnits="userSpaceOnUse" x1="785.7764" y1="582.3937" x2="927.2372" y2="582.3937" gradientTransform="matrix(1 0 0 -1 0 1080.3937)">
			<stop  offset="0" style="stop-color:#35C2F2"/>
			<stop  offset="1" style="stop-color:#1F82C5"/>
		</linearGradient>
		<path class="st2" d="M832.2,597.7c9.8-7.4,18.7-13.1,26.3-20.2c19.8-18.3,25.1-59-2.6-85.1c-18-16.9-47-12.2-62.7,9.7
			c-2.3,3.3-4.4,6.7-7.4,9.6c-0.8-22.3,5.9-41.1,21.8-57.3c15.7-16,34.9-22.1,56.3-23.2c4.4-13.4-4.2-22.6-8.2-32.9
			c25.8,1.3,69.4,37.2,71.4,89.9C929.3,547.4,894,587.4,832.2,597.7z"/>
		<path class="st3" d="M936.5,423.2c-2.5-2.2-5.2-4.3-7.4-6.7c-9.9-11-22.2-18.3-35.8-23.7c-13.2-5.2-25-12.8-34.5-23.7
			c-4.1-4.7-8.3-9.6-5.1-16.2c3-6.3,8.8-7.4,15.4-7.7c9.7-0.5,17.9,2.9,25.4,8.6c23,17.4,36.9,40.6,44.3,67.9
			C938,422.1,937.2,422.7,936.5,423.2z"/>
		<path class="st3" d="M841.6,423c-19.5,5-37.1,9.7-54.7,14c-10,2.5-19.1-0.8-20.7-6.8c-1.6-6,4.6-13.7,14.6-16.4
			C801.7,408,821.2,413,841.6,423z"/>
	</g>
	<g>
		<path class="st4" d="M87.8,544.1V403.9h61.1c32.7,0,49.1,13.5,49.1,40.4c0,27.9-16.3,41.9-49,41.9h-33.2v58L87.8,544.1L87.8,544.1
			z M115.9,460h39.2c11.3-0.2,17.1-5.3,17.4-15.4c-0.3-9.2-6-14-17.1-14.4h-39.6V460H115.9z"/>
		<path class="st4" d="M244.6,403.9v81.3c0,10.6,3.1,18.4,9.4,23.4c6.2,5,14,7.5,23.4,7.5s17.1-2.5,23.4-7.5
			c6.2-5,9.4-12.8,9.4-23.4v-81.3h27.9v88.8c0,14.3-5.8,26.5-17.3,36.5s-26,15-43.5,15s-31.9-5-43.5-15
			c-11.5-10-17.3-22.1-17.3-36.5v-88.8L244.6,403.9L244.6,403.9z"/>
		<path class="st4" d="M452.9,483l35,61.1h-32.2l-33.6-58h-25.6v58h-28.1V403.9h61.1c32.7,0,49.1,13.5,49.1,40.4
			C478.7,464.5,470.1,477.4,452.9,483z M396.5,460h39.3c11.3-0.2,17.1-5.3,17.4-15.4c-0.3-9.2-6-14-17.1-14.4h-39.6L396.5,460
			L396.5,460z"/>
		<path class="st4" d="M502,544.1V404l103-0.1V430h-75v30h56.2v26.1h-56.1V518h74.8v26.2H502V544.1z"/>
		<path class="st4" d="M679.5,471.1l-49.1-67.2h32.9l32.7,44.6l32.7-44.6h32.9l-49.1,67.2l53.6,73h-33.3L696,493.7l-36.8,50.4h-33.3
			L679.5,471.1z"/>
	</g>
	<g>
		<path class="st5" d="M335.6,589.5c3.5,0,5.6,2.3,6.5,5.2l13.4,43.6l14.5-43.6c1-2.9,3.6-5.2,6.5-5.2h12.1c2.5,0,4.5,2.1,3.6,4.6
			l-24.6,68.6c-1.2,3.5-3.9,5.6-7.9,5.6h-8c-3.9,0-6.8-2.1-7.9-5.6l-13.4-42.4L317,662.7c-1.1,3.5-3.9,5.6-7.9,5.6h-8
			c-3.9,0-6.6-2.1-7.9-5.6l-24.6-68.6c-0.9-2.5,1.1-4.6,3.6-4.6h12.1c2.9,0,5.5,2.3,6.5,5.2l14.5,43.6l13.4-43.6
			c0.9-2.9,3-5.2,6.5-5.2H335.6z"/>
		<path class="st5" d="M419.3,623.1c-1.5,1.8-3.5,2.9-6.3,2.9h-8.2c-1.9,0-3.4-1.5-3.4-3.4c0-11.7,11.7-15.8,30-15.8
			c16.2,0,28.9,6.8,28.9,24v34c0,1.9-1.5,3.4-3.4,3.4h-10.6c-1.9,0-3.4-1.5-3.4-3.4v-1.7c-5.1,3.6-11.3,6.2-19.9,6.2
			c-14.8,0-26-6.6-26-19.4s11.3-19.1,26-19.1h18.2c0-8.8-3.7-11.5-11.3-11.5C425.4,619.4,421.2,620.8,419.3,623.1z M441.3,652v-8.6
			h-16.9c-5.3,0-8.3,2.9-8.3,6.6c0,3.9,3,6.9,8.9,6.9C431.7,656.9,437.4,654.4,441.3,652z"/>
		<path class="st5" d="M497.5,669.4c-15.8,0-23.7-7.9-23.7-24.8v-51.8c0-1.9,1.5-3.4,3.4-3.4h12.3c1.9,0,3.4,1.5,3.4,3.4v18.4h15.3
			c1.9,0,3.4,1.5,3.4,3.4v6.5c0,1.9-1.5,3.4-3.4,3.4h-15.3v20.2c0,7.7,3.9,11.7,9.7,11.7c2.9,0,5.1-0.7,7.5-0.7h2
			c1.9,0,3.4,1.5,3.4,3.4v5.9c0,1.7-1.5,3-3.4,3.4C508.8,669,502.6,669.4,497.5,669.4z"/>
		<path class="st5" d="M540.5,644c0.8,9,4.8,13,14.1,13c4.7,0,8.9-1.4,10.8-3.7c1.5-1.8,3.5-2.9,6.3-2.9h8.2c1.9,0,3.4,1.5,3.4,3.4
			c0,11.7-12.1,15.8-30.1,15.8c-20,0-32.1-10.8-32.1-31.2c0-20.3,12.2-31.3,32.1-31.3c20,0,32.1,10.7,32.1,30.5v3.2
			c0,1.9-1.5,3.4-3.4,3.4h-41.4V644z M540.4,632.4H566c-0.3-8.4-4.4-13-12.7-13C545.2,619.4,540.9,623.9,540.4,632.4z"/>
		<path class="st5" d="M642.4,618.6c0,1.9-1.5,3.4-3.4,3.4h-1.8c-2.6,0-5.5-0.3-8.4-0.3c-5.6,0-10.1,3.3-14.2,8.1v35.1
			c0,1.9-1.5,3.4-3.4,3.4h-12.3c-1.9,0-3.4-1.5-3.4-3.4v-53.5c0-1.9,1.5-3.4,3.4-3.4h12.3c1.9,0,3.4,1.5,3.4,3.4v3.5
			c6.3-4.6,12.1-8,24.4-8c1.9,0,3.4,1.5,3.4,3.4V618.6z"/>
	</g>
	<path class="st4" d="M272.3,634.2h-184c-1,0-1.9,0.9-1.9,1.9l0,0c0,1,0.9,1.9,1.9,1.9h184c1,0,1.9-0.9,1.9-1.9l0,0
		C274.2,635,273.4,634.2,272.3,634.2z"/>
</g>
</svg>
